<svg width="140" height="89" viewBox="0 0 140 89" fill="none" xmlns="http://www.w3.org/2000/svg">
    <rect x="0.5" y="0.5" width="139" height="88" rx="3.5" fill="currentColor" stroke="#BBBFC3"/>
    <rect x="31.0859" y="67.6501" width="23.6379" height="12.441" rx="1.2441" fill="#BBBFC3"/>
    <rect x="57.1717" y="37.7063" width="24.26" height="12.441" rx="1.2441" fill="#BBBFC3"/>
    <rect x="5" y="37.7063" width="23.6379" height="12.441" rx="1.2441" fill="#BBBFC3"/>
    <rect x="5" y="22.7343" width="23.6379" height="12.441" rx="1.2441" fill="#BBBFC3"/>
    <rect x="5" y="8" width="23.6379" height="12.441" rx="1.2441" fill="#BBBFC3"/>
    <rect x="5" y="52.6782" width="23.6379" height="12.441" rx="1.2441" fill="#BBBFC3"/>
    <rect x="5" y="67.6501" width="23.6379" height="12.441" rx="1.2441" fill="#BBBFC3"/>
    <rect x="31.0859" y="37.7063" width="23.6379" height="12.441" rx="1.2441" fill="#BBBFC3"/>
    <rect x="31.0859" y="22.7344" width="23.6379" height="12.441" rx="1.2441" fill="#BBBFC3"/>
    <rect x="31.0859" y="8" width="23.6379" height="12.441" rx="1.2441" fill="#BBBFC3"/>
    <rect x="31.0859" y="52.6782" width="23.6379" height="12.441" rx="1.2441" fill="#BBBFC3"/>
    <rect x="57.1717" y="22.7343" width="24.26" height="12.441" rx="1.2441" fill="#BBBFC3"/>
    <rect x="57.1717" y="8" width="24.26" height="12.441" rx="1.2441" fill="#BBBFC3"/>
    <rect x="83.8828" y="37.7063" width="24.26" height="12.441" rx="1.2441" fill="#BBBFC3"/>
    <rect x="110.742" y="37.7063" width="24.26" height="12.441" rx="1.2441" fill="#BBBFC3"/>
    <rect x="83.8828" y="22.7344" width="24.26" height="12.441" rx="1.2441" fill="#BBBFC3"/>
    <rect x="83.8828" y="8" width="24.26" height="12.441" rx="1.2441" fill="#BBBFC3"/>
    <rect x="110.742" y="22.7344" width="24.26" height="12.441" rx="1.2441" fill="#BBBFC3"/>
    <rect x="110.742" y="8" width="24.26" height="12.441" rx="1.2441" fill="#BBBFC3"/>
    <rect x="83.8828" y="52.6782" width="24.26" height="12.441" rx="1.2441" fill="#BBBFC3"/>
    <rect x="110.742" y="52.6782" width="24.26" height="12.441" rx="1.2441" fill="#BBBFC3"/>
    <rect x="83.8828" y="67.6501" width="24.26" height="12.441" rx="1.2441" fill="#BBBFC3"/>
    <rect x="110.742" y="67.6501" width="24.26" height="12.441" rx="1.2441" fill="#BBBFC3"/>
    <rect x="57.1717" y="52.6782" width="24.26" height="12.441" rx="1.2441" fill="#BBBFC3"/>
    <rect x="57.1717" y="67.6501" width="24.26" height="12.441" rx="1.2441" fill="#BBBFC3"/>
</svg>
