<svg width="140" height="89" viewBox="0 0 140 89" fill="none" xmlns="http://www.w3.org/2000/svg">
    <rect x="0.5" y="0.5" width="139" height="88" rx="3.5" fill="currentColor" stroke="#BBBFC3"/>
    <rect x="41.1016" y="63.8228" width="27.2728" height="14.3541" rx="1.43541" fill="#BBBFC3"/>
    <rect x="71.1953" y="29.2743" width="27.9905" height="14.3541" rx="1.43541" fill="#BBBFC3"/>
    <rect x="11" y="29.2743" width="27.2728" height="14.3541" rx="1.43541" fill="#BBBFC3"/>
    <rect x="11" y="12" width="27.2728" height="14.3541" rx="1.43541" fill="#BBBFC3"/>
    <rect x="11" y="46.5486" width="27.2728" height="14.3541" rx="1.43541" fill="#BBBFC3"/>
    <rect x="11" y="63.8228" width="27.2728" height="14.3541" rx="1.43541" fill="#BBBFC3"/>
    <rect x="41.1016" y="29.2743" width="27.2728" height="14.3541" rx="1.43541" fill="#BBBFC3"/>
    <rect x="41.1016" y="12" width="27.2728" height="14.3541" rx="1.43541" fill="#BBBFC3"/>
    <rect x="41.1016" y="46.5486" width="27.2728" height="14.3541" rx="1.43541" fill="#BBBFC3"/>
    <rect x="71.1953" y="12" width="27.9905" height="14.3541" rx="1.43541" fill="#BBBFC3"/>
    <rect x="102.008" y="29.2743" width="27.9905" height="14.3541" rx="1.43541" fill="#BBBFC3"/>
    <rect x="102.008" y="12" width="27.9905" height="14.3541" rx="1.43541" fill="#BBBFC3"/>
    <rect x="102.008" y="46.5486" width="27.9905" height="14.3541" rx="1.43541" fill="#BBBFC3"/>
    <rect x="102.008" y="63.8228" width="27.9905" height="14.3541" rx="1.43541" fill="#BBBFC3"/>
    <rect x="71.1953" y="46.5486" width="27.9905" height="14.3541" rx="1.43541" fill="#BBBFC3"/>
    <rect x="71.1953" y="63.8228" width="27.9905" height="14.3541" rx="1.43541" fill="#BBBFC3"/>
</svg>
